<svg xmlns="http://www.w3.org/2000/svg" viewBox="0 0 1200 630" width="1200" height="630" role="img" aria-label="البحري: تحليل مالي وأساسي، سبتمبر 2026">
<defs><linearGradient id="sea" x2="1" y2="1"><stop stop-color="#071b34"/><stop offset="1" stop-color="#153f65"/></linearGradient></defs>
<rect width="1200" height="630" fill="url(#sea)"/>
<g fill="none" stroke="#69b9ed" opacity=".18"><circle cx="80" cy="80" r="260"/><circle cx="80" cy="80" r="340"/><path d="M0 530Q160 490 320 530T640 530T960 530T1280 530M0 570Q160 530 320 570T640 570T960 570T1280 570" stroke-width="3"/></g>
<g transform="translate(45 345)" fill="#6fb6dd" opacity=".28"><path d="M0 94h368l-50 61H63L15 134Z"/><rect x="36" y="38" width="47" height="56" rx="3"/><rect x="39" y="23" width="37" height="15"/><rect x="60" y="-12" width="5" height="40"/><rect x="105" y="67" width="228" height="21" rx="5"/><path d="M102 45h231v8H102zM120 41v26h5V41m55 0v26h5V41m55 0v26h5V41m55 0v26h5V41"/></g>
<g font-family="Tahoma,Arial,sans-serif" text-anchor="end"><text x="1120" y="105" fill="#8dcff3" font-size="25">ALSAGRI CAPITAL</text><text x="1120" y="235" fill="#fff" font-size="88" font-weight="700">البحري</text><text x="1120" y="300" fill="#aed9f4" font-size="28">BAHRI · 4030</text><text x="1120" y="390" fill="#fff" font-size="37">قوة السوق الفورية واستدامة الأرباح</text><text x="1120" y="457" fill="#c7deef" font-size="25">الطلب والعقود · الأسطول · جودة الأرباح والسيولة</text></g></svg>